<mxfile host="app.diagrams.net" modified="2023-03-15T14:13:19.452Z" agent="5.0 (Macintosh; Intel Mac OS X 10_15_7) AppleWebKit/537.36 (KHTML, like Gecko) Chrome/110.0.0.0 Safari/537.36 Edg/110.0.1587.69" etag="xNdSY_PwOiglgjGmSX6j" version="21.0.6" type="github">
  <diagram id="LjcHvfkx4tGp7lgOrIEd" name="第 1 页">
    <mxGraphModel dx="1577" dy="1060" grid="0" gridSize="10" guides="1" tooltips="1" connect="1" arrows="1" fold="1" page="0" pageScale="1" pageWidth="850" pageHeight="1100" background="none" math="0" shadow="0">
      <root>
        <mxCell id="0" />
        <mxCell id="1" parent="0" />
        <mxCell id="RUT14wLtlC0sVts7Rqis-16" value="" style="rounded=0;whiteSpace=wrap;html=1;shadow=0;strokeColor=#2D7600;fillColor=#97D077;fontColor=#ffffff;" parent="1" vertex="1">
          <mxGeometry x="-62" y="111" width="510" height="100" as="geometry" />
        </mxCell>
        <mxCell id="RUT14wLtlC0sVts7Rqis-17" value="" style="rounded=0;whiteSpace=wrap;html=1;shadow=0;strokeColor=#CDA2BE;fillColor=#97D077;gradientColor=none;gradientDirection=north;" parent="1" vertex="1">
          <mxGeometry x="-62" y="294" width="508.75" height="64" as="geometry" />
        </mxCell>
        <mxCell id="RUT14wLtlC0sVts7Rqis-18" value="" style="rounded=0;whiteSpace=wrap;html=1;shadow=0;strokeColor=#36393d;fillColor=#cce5ff;" parent="1" vertex="1">
          <mxGeometry x="-63" y="230" width="509.75" height="43" as="geometry" />
        </mxCell>
        <mxCell id="RUT14wLtlC0sVts7Rqis-20" value="" style="rounded=0;whiteSpace=wrap;html=1;shadow=0;strokeColor=#36393d;fillColor=#cce5ff;" parent="1" vertex="1">
          <mxGeometry x="-60" y="50" width="508" height="41" as="geometry" />
        </mxCell>
        <mxCell id="RUT14wLtlC0sVts7Rqis-21" value="&lt;span style=&quot;color: rgba(0 , 0 , 0 , 0) ; font-family: monospace ; font-size: 0px&quot;&gt;%3CmxGraphModel%3E%3Croot%3E%3CmxCell%20id%3D%220%22%2F%3E%3CmxCell%20id%3D%221%22%20parent%3D%220%22%2F%3E%3CmxCell%20id%3D%222%22%20value%3D%22%E5%A4%9A%E6%92%AD%22%20style%3D%22rounded%3D1%3BwhiteSpace%3Dwrap%3Bhtml%3D1%3Bshadow%3D1%3BstrokeColor%3Ddefault%3BfillColor%3Dnone%3B%22%20vertex%3D%221%22%20parent%3D%221%22%3E%3CmxGeometry%20x%3D%22271%22%20y%3D%2255.5%22%20width%3D%2255%22%20height%3D%2225.5%22%20as%3D%22geometry%22%2F%3E%3C%2FmxCell%3E%3C%2Froot%3E%3C%2FmxGraphModel%3E&lt;/span&gt;&lt;span style=&quot;color: rgba(0 , 0 , 0 , 0) ; font-family: monospace ; font-size: 0px&quot;&gt;%3CmxGraphModel%3E%3Croot%3E%3CmxCell%20id%3D%220%22%2F%3E%3CmxCell%20id%3D%221%22%20parent%3D%220%22%2F%3E%3CmxCell%20id%3D%222%22%20value%3D%22%E5%A4%9A%E6%92%AD%22%20style%3D%22rounded%3D1%3BwhiteSpace%3Dwrap%3Bhtml%3D1%3Bshadow%3D1%3BstrokeColor%3Ddefault%3BfillColor%3Dnone%3B%22%20vertex%3D%221%22%20parent%3D%221%22%3E%3CmxGeometry%20x%3D%22271%22%20y%3D%2255.5%22%20width%3D%2255%22%20height%3D%2225.5%22%20as%3D%22geometry%22%2F%3E%3C%2FmxCell%3E%3C%2Froot%3E%3C%2FmxGraphModel%3E&lt;/span&gt;" style="shape=curlyBracket;whiteSpace=wrap;html=1;rounded=1;flipH=1;shadow=0;strokeColor=default;fillColor=none;" parent="1" vertex="1">
          <mxGeometry x="458" y="-38" width="9" height="47" as="geometry" />
        </mxCell>
        <mxCell id="RUT14wLtlC0sVts7Rqis-22" value="&lt;font style=&quot;font-size: 15px&quot;&gt;&amp;nbsp;接口层&amp;nbsp;&lt;/font&gt;" style="text;html=1;align=center;verticalAlign=middle;resizable=0;points=[];autosize=1;strokeColor=#d6b656;fillColor=#fff2cc;rounded=1;arcSize=28;gradientColor=none;shadow=0;" parent="1" vertex="1">
          <mxGeometry x="487" y="56.5" width="63" height="19" as="geometry" />
        </mxCell>
        <mxCell id="RUT14wLtlC0sVts7Rqis-23" value="单播" style="rounded=1;whiteSpace=wrap;html=1;shadow=0;strokeColor=default;fillColor=none;" parent="1" vertex="1">
          <mxGeometry x="36.75" y="55.5" width="55" height="25.5" as="geometry" />
        </mxCell>
        <mxCell id="RUT14wLtlC0sVts7Rqis-24" value="多播" style="rounded=1;whiteSpace=wrap;html=1;shadow=0;strokeColor=default;fillColor=none;" parent="1" vertex="1">
          <mxGeometry x="140" y="56.5" width="55" height="25.5" as="geometry" />
        </mxCell>
        <mxCell id="RUT14wLtlC0sVts7Rqis-25" value="广播" style="rounded=1;whiteSpace=wrap;html=1;shadow=0;strokeColor=default;fillColor=none;" parent="1" vertex="1">
          <mxGeometry x="236" y="57.75" width="55" height="25.5" as="geometry" />
        </mxCell>
        <mxCell id="RUT14wLtlC0sVts7Rqis-27" value="&lt;span style=&quot;color: rgba(0 , 0 , 0 , 0) ; font-family: monospace ; font-size: 0px&quot;&gt;%3CmxGraphModel%3E%3Croot%3E%3CmxCell%20id%3D%220%22%2F%3E%3CmxCell%20id%3D%221%22%20parent%3D%220%22%2F%3E%3CmxCell%20id%3D%222%22%20value%3D%22%E5%A4%9A%E6%92%AD%22%20style%3D%22rounded%3D1%3BwhiteSpace%3Dwrap%3Bhtml%3D1%3Bshadow%3D1%3BstrokeColor%3Ddefault%3BfillColor%3Dnone%3B%22%20vertex%3D%221%22%20parent%3D%221%22%3E%3CmxGeometry%20x%3D%22271%22%20y%3D%2255.5%22%20width%3D%2255%22%20height%3D%2225.5%22%20as%3D%22geometry%22%2F%3E%3C%2FmxCell%3E%3C%2Froot%3E%3C%2FmxGraphModel%3E&lt;/span&gt;&lt;span style=&quot;color: rgba(0 , 0 , 0 , 0) ; font-family: monospace ; font-size: 0px&quot;&gt;%3CmxGraphModel%3E%3Croot%3E%3CmxCell%20id%3D%220%22%2F%3E%3CmxCell%20id%3D%221%22%20parent%3D%220%22%2F%3E%3CmxCell%20id%3D%222%22%20value%3D%22%E5%A4%9A%E6%92%AD%22%20style%3D%22rounded%3D1%3BwhiteSpace%3Dwrap%3Bhtml%3D1%3Bshadow%3D1%3BstrokeColor%3Ddefault%3BfillColor%3Dnone%3B%22%20vertex%3D%221%22%20parent%3D%221%22%3E%3CmxGeometry%20x%3D%22271%22%20y%3D%2255.5%22%20width%3D%2255%22%20height%3D%2225.5%22%20as%3D%22geometry%22%2F%3E%3C%2FmxCell%3E%3C%2Froot%3E%3C%2FmxGraphModel%3E&lt;/span&gt;" style="shape=curlyBracket;whiteSpace=wrap;html=1;rounded=1;flipH=1;shadow=0;strokeColor=default;fillColor=none;" parent="1" vertex="1">
          <mxGeometry x="456.75" y="227" width="9" height="45" as="geometry" />
        </mxCell>
        <mxCell id="RUT14wLtlC0sVts7Rqis-28" value="&lt;font style=&quot;font-size: 15px&quot;&gt;协议寻址&amp;nbsp;&lt;/font&gt;" style="text;html=1;align=center;verticalAlign=middle;resizable=0;points=[];autosize=1;strokeColor=#d6b656;fillColor=#fff2cc;rounded=1;gradientColor=none;shadow=0;" parent="1" vertex="1">
          <mxGeometry x="489.25" y="239.25" width="74" height="19" as="geometry" />
        </mxCell>
        <mxCell id="RUT14wLtlC0sVts7Rqis-29" value="点对点" style="rounded=1;whiteSpace=wrap;html=1;shadow=0;strokeColor=default;fillColor=none;" parent="1" vertex="1">
          <mxGeometry x="60" y="240.75" width="59.75" height="24" as="geometry" />
        </mxCell>
        <mxCell id="RUT14wLtlC0sVts7Rqis-30" value="RIP协议" style="rounded=1;whiteSpace=wrap;html=1;shadow=0;strokeColor=default;fillColor=none;" parent="1" vertex="1">
          <mxGeometry x="285" y="240.75" width="55" height="25.5" as="geometry" />
        </mxCell>
        <mxCell id="RUT14wLtlC0sVts7Rqis-31" value="&lt;span style=&quot;color: rgba(0 , 0 , 0 , 0) ; font-family: monospace ; font-size: 0px&quot;&gt;%3CmxGraphModel%3E%3Croot%3E%3CmxCell%20id%3D%220%22%2F%3E%3CmxCell%20id%3D%221%22%20parent%3D%220%22%2F%3E%3CmxCell%20id%3D%222%22%20value%3D%22%E5%A4%9A%E6%92%AD%22%20style%3D%22rounded%3D1%3BwhiteSpace%3Dwrap%3Bhtml%3D1%3Bshadow%3D1%3BstrokeColor%3Ddefault%3BfillColor%3Dnone%3B%22%20vertex%3D%221%22%20parent%3D%221%22%3E%3CmxGeometry%20x%3D%22271%22%20y%3D%2255.5%22%20width%3D%2255%22%20height%3D%2225.5%22%20as%3D%22geometry%22%2F%3E%3C%2FmxCell%3E%3C%2Froot%3E%3C%2FmxGraphModel%3E&lt;/span&gt;&lt;span style=&quot;color: rgba(0 , 0 , 0 , 0) ; font-family: monospace ; font-size: 0px&quot;&gt;%3CmxGraphModel%3E%3Croot%3E%3CmxCell%20id%3D%220%22%2F%3E%3CmxCell%20id%3D%221%22%20parent%3D%220%22%2F%3E%3CmxCell%20id%3D%222%22%20value%3D%22%E5%A4%9A%E6%92%AD%22%20style%3D%22rounded%3D1%3BwhiteSpace%3Dwrap%3Bhtml%3D1%3Bshadow%3D1%3BstrokeColor%3Ddefault%3BfillColor%3Dnone%3B%22%20vertex%3D%221%22%20parent%3D%221%22%3E%3CmxGeometry%20x%3D%22271%22%20y%3D%2255.5%22%20width%3D%2255%22%20height%3D%2225.5%22%20as%3D%22geometry%22%2F%3E%3C%2FmxCell%3E%3C%2Froot%3E%3C%2FmxGraphModel%3E&lt;/span&gt;" style="shape=curlyBracket;whiteSpace=wrap;html=1;rounded=1;flipH=1;shadow=0;strokeColor=default;fillColor=none;" parent="1" vertex="1">
          <mxGeometry x="458" y="108" width="9" height="93" as="geometry" />
        </mxCell>
        <mxCell id="RUT14wLtlC0sVts7Rqis-32" value="&lt;font style=&quot;font-size: 15px&quot;&gt;&amp;nbsp; 限流&amp;nbsp; &amp;nbsp;&lt;/font&gt;" style="text;html=1;align=center;verticalAlign=middle;resizable=0;points=[];autosize=1;strokeColor=#d6b656;fillColor=#fff2cc;rounded=1;arcSize=29;shadow=0;gradientColor=none;" parent="1" vertex="1">
          <mxGeometry x="488" y="147.5" width="61" height="19" as="geometry" />
        </mxCell>
        <mxCell id="RUT14wLtlC0sVts7Rqis-33" value="分布式" style="rounded=1;whiteSpace=wrap;html=1;shadow=0;strokeColor=default;fillColor=none;" parent="1" vertex="1">
          <mxGeometry x="59.99999999999999" y="122" width="55" height="25.5" as="geometry" />
        </mxCell>
        <mxCell id="RUT14wLtlC0sVts7Rqis-34" value="单机" style="rounded=1;whiteSpace=wrap;html=1;shadow=0;strokeColor=default;fillColor=none;" parent="1" vertex="1">
          <mxGeometry x="282" y="122" width="55" height="25.5" as="geometry" />
        </mxCell>
        <mxCell id="RUT14wLtlC0sVts7Rqis-35" value="群组" style="rounded=1;whiteSpace=wrap;html=1;shadow=0;strokeColor=default;fillColor=none;" parent="1" vertex="1">
          <mxGeometry x="-12" y="166.5" width="81" height="23.5" as="geometry" />
        </mxCell>
        <mxCell id="RUT14wLtlC0sVts7Rqis-39" value="" style="rounded=1;whiteSpace=wrap;html=1;shadow=1;strokeColor=default;fillColor=none;" parent="1" vertex="1">
          <mxGeometry x="-26" y="156.25" width="437" height="44" as="geometry" />
        </mxCell>
        <mxCell id="RUT14wLtlC0sVts7Rqis-36" style="edgeStyle=orthogonalEdgeStyle;rounded=0;orthogonalLoop=1;jettySize=auto;html=1;exitX=0.5;exitY=1;exitDx=0;exitDy=0;shadow=0;" parent="1" source="RUT14wLtlC0sVts7Rqis-34" target="RUT14wLtlC0sVts7Rqis-34" edge="1">
          <mxGeometry relative="1" as="geometry" />
        </mxCell>
        <mxCell id="RUT14wLtlC0sVts7Rqis-37" value="连接" style="rounded=1;whiteSpace=wrap;html=1;shadow=0;strokeColor=default;fillColor=none;" parent="1" vertex="1">
          <mxGeometry x="100.75" y="166.5" width="79.25" height="23.5" as="geometry" />
        </mxCell>
        <mxCell id="RUT14wLtlC0sVts7Rqis-38" value="模块" style="rounded=1;whiteSpace=wrap;html=1;shadow=0;strokeColor=default;fillColor=none;" parent="1" vertex="1">
          <mxGeometry x="210.5" y="166.5" width="79.5" height="23.5" as="geometry" />
        </mxCell>
        <mxCell id="RUT14wLtlC0sVts7Rqis-40" value="其他维度..." style="rounded=1;whiteSpace=wrap;html=1;shadow=0;strokeColor=default;fillColor=none;" parent="1" vertex="1">
          <mxGeometry x="330" y="166.5" width="70" height="23.5" as="geometry" />
        </mxCell>
        <mxCell id="RUT14wLtlC0sVts7Rqis-41" value="&lt;span style=&quot;color: rgba(0 , 0 , 0 , 0) ; font-family: monospace ; font-size: 0px&quot;&gt;%3CmxGraphModel%3E%3Croot%3E%3CmxCell%20id%3D%220%22%2F%3E%3CmxCell%20id%3D%221%22%20parent%3D%220%22%2F%3E%3CmxCell%20id%3D%222%22%20value%3D%22%E5%A4%9A%E6%92%AD%22%20style%3D%22rounded%3D1%3BwhiteSpace%3Dwrap%3Bhtml%3D1%3Bshadow%3D1%3BstrokeColor%3Ddefault%3BfillColor%3Dnone%3B%22%20vertex%3D%221%22%20parent%3D%221%22%3E%3CmxGeometry%20x%3D%22271%22%20y%3D%2255.5%22%20width%3D%2255%22%20height%3D%2225.5%22%20as%3D%22geometry%22%2F%3E%3C%2FmxCell%3E%3C%2Froot%3E%3C%2FmxGraphModel%3E&lt;/span&gt;&lt;span style=&quot;color: rgba(0 , 0 , 0 , 0) ; font-family: monospace ; font-size: 0px&quot;&gt;%3CmxGraphModel%3E%3Croot%3E%3CmxCell%20id%3D%220%22%2F%3E%3CmxCell%20id%3D%221%22%20parent%3D%220%22%2F%3E%3CmxCell%20id%3D%222%22%20value%3D%22%E5%A4%9A%E6%92%AD%22%20style%3D%22rounded%3D1%3BwhiteSpace%3Dwrap%3Bhtml%3D1%3Bshadow%3D1%3BstrokeColor%3Ddefault%3BfillColor%3Dnone%3B%22%20vertex%3D%221%22%20parent%3D%221%22%3E%3CmxGeometry%20x%3D%22271%22%20y%3D%2255.5%22%20width%3D%2255%22%20height%3D%2225.5%22%20as%3D%22geometry%22%2F%3E%3C%2FmxCell%3E%3C%2Froot%3E%3C%2FmxGraphModel%3E&lt;/span&gt;" style="shape=curlyBracket;whiteSpace=wrap;html=1;rounded=1;flipH=1;shadow=0;strokeColor=default;fillColor=none;" parent="1" vertex="1">
          <mxGeometry x="458" y="293" width="9" height="64" as="geometry" />
        </mxCell>
        <mxCell id="RUT14wLtlC0sVts7Rqis-42" value="&lt;font style=&quot;font-size: 15px&quot;&gt;&amp;nbsp;一致性&amp;nbsp;&lt;/font&gt;" style="text;html=1;align=center;verticalAlign=middle;resizable=0;points=[];autosize=1;strokeColor=#d6b656;fillColor=#fff2cc;rounded=1;gradientColor=none;shadow=0;" parent="1" vertex="1">
          <mxGeometry x="487" y="316" width="63" height="19" as="geometry" />
        </mxCell>
        <mxCell id="RUT14wLtlC0sVts7Rqis-43" value="Gossip协议" style="rounded=1;whiteSpace=wrap;html=1;shadow=0;strokeColor=none;fillColor=none;" parent="1" vertex="1">
          <mxGeometry x="151.75" y="294" width="76.75" height="22" as="geometry" />
        </mxCell>
        <mxCell id="RUT14wLtlC0sVts7Rqis-44" value="节点ID" style="rounded=1;whiteSpace=wrap;html=1;shadow=0;strokeColor=default;fillColor=none;" parent="1" vertex="1">
          <mxGeometry x="22" y="322" width="55" height="25.5" as="geometry" />
        </mxCell>
        <mxCell id="RUT14wLtlC0sVts7Rqis-45" value="群组" style="rounded=1;whiteSpace=wrap;html=1;shadow=0;strokeColor=default;fillColor=none;" parent="1" vertex="1">
          <mxGeometry x="219.25" y="322" width="55" height="25.5" as="geometry" />
        </mxCell>
        <mxCell id="RUT14wLtlC0sVts7Rqis-46" value="其他..." style="rounded=1;whiteSpace=wrap;html=1;shadow=0;strokeColor=default;fillColor=none;" parent="1" vertex="1">
          <mxGeometry x="322" y="322" width="55" height="25.5" as="geometry" />
        </mxCell>
        <mxCell id="RUT14wLtlC0sVts7Rqis-47" value="&lt;span style=&quot;color: rgba(0 , 0 , 0 , 0) ; font-family: monospace ; font-size: 0px&quot;&gt;%3CmxGraphModel%3E%3Croot%3E%3CmxCell%20id%3D%220%22%2F%3E%3CmxCell%20id%3D%221%22%20parent%3D%220%22%2F%3E%3CmxCell%20id%3D%222%22%20value%3D%22%E5%A4%9A%E6%92%AD%22%20style%3D%22rounded%3D1%3BwhiteSpace%3Dwrap%3Bhtml%3D1%3Bshadow%3D1%3BstrokeColor%3Ddefault%3BfillColor%3Dnone%3B%22%20vertex%3D%221%22%20parent%3D%221%22%3E%3CmxGeometry%20x%3D%22271%22%20y%3D%2255.5%22%20width%3D%2255%22%20height%3D%2225.5%22%20as%3D%22geometry%22%2F%3E%3C%2FmxCell%3E%3C%2Froot%3E%3C%2FmxGraphModel%3E&lt;/span&gt;&lt;span style=&quot;color: rgba(0 , 0 , 0 , 0) ; font-family: monospace ; font-size: 0px&quot;&gt;%3CmxGraphModel%3E%3Croot%3E%3CmxCell%20id%3D%220%22%2F%3E%3CmxCell%20id%3D%221%22%20parent%3D%220%22%2F%3E%3CmxCell%20id%3D%222%22%20value%3D%22%E5%A4%9A%E6%92%AD%22%20style%3D%22rounded%3D1%3BwhiteSpace%3Dwrap%3Bhtml%3D1%3Bshadow%3D1%3BstrokeColor%3Ddefault%3BfillColor%3Dnone%3B%22%20vertex%3D%221%22%20parent%3D%221%22%3E%3CmxGeometry%20x%3D%22271%22%20y%3D%2255.5%22%20width%3D%2255%22%20height%3D%2225.5%22%20as%3D%22geometry%22%2F%3E%3C%2FmxCell%3E%3C%2Froot%3E%3C%2FmxGraphModel%3E&lt;/span&gt;" style="shape=curlyBracket;whiteSpace=wrap;html=1;rounded=1;flipH=1;shadow=0;strokeColor=default;fillColor=none;" parent="1" vertex="1">
          <mxGeometry x="456.75" y="473" width="9" height="43" as="geometry" />
        </mxCell>
        <mxCell id="RUT14wLtlC0sVts7Rqis-48" value="&lt;font style=&quot;font-size: 15px&quot;&gt;准入机制&lt;/font&gt;" style="text;html=1;align=center;verticalAlign=middle;resizable=0;points=[];autosize=1;strokeColor=#d6b656;fillColor=#fff2cc;rounded=1;gradientColor=none;shadow=0;" parent="1" vertex="1">
          <mxGeometry x="490" y="485" width="70" height="19" as="geometry" />
        </mxCell>
        <mxCell id="RUT14wLtlC0sVts7Rqis-49" value="&lt;span style=&quot;color: rgba(0 , 0 , 0 , 0) ; font-family: monospace ; font-size: 0px&quot;&gt;%3CmxGraphModel%3E%3Croot%3E%3CmxCell%20id%3D%220%22%2F%3E%3CmxCell%20id%3D%221%22%20parent%3D%220%22%2F%3E%3CmxCell%20id%3D%222%22%20value%3D%22%E5%A4%9A%E6%92%AD%22%20style%3D%22rounded%3D1%3BwhiteSpace%3Dwrap%3Bhtml%3D1%3Bshadow%3D1%3BstrokeColor%3Ddefault%3BfillColor%3Dnone%3B%22%20vertex%3D%221%22%20parent%3D%221%22%3E%3CmxGeometry%20x%3D%22271%22%20y%3D%2255.5%22%20width%3D%2255%22%20height%3D%2225.5%22%20as%3D%22geometry%22%2F%3E%3C%2FmxCell%3E%3C%2Froot%3E%3C%2FmxGraphModel%3E&lt;/span&gt;&lt;span style=&quot;color: rgba(0 , 0 , 0 , 0) ; font-family: monospace ; font-size: 0px&quot;&gt;%3CmxGraphModel%3E%3Croot%3E%3CmxCell%20id%3D%220%22%2F%3E%3CmxCell%20id%3D%221%22%20parent%3D%220%22%2F%3E%3CmxCell%20id%3D%222%22%20value%3D%22%E5%A4%9A%E6%92%AD%22%20style%3D%22rounded%3D1%3BwhiteSpace%3Dwrap%3Bhtml%3D1%3Bshadow%3D1%3BstrokeColor%3Ddefault%3BfillColor%3Dnone%3B%22%20vertex%3D%221%22%20parent%3D%221%22%3E%3CmxGeometry%20x%3D%22271%22%20y%3D%2255.5%22%20width%3D%2255%22%20height%3D%2225.5%22%20as%3D%22geometry%22%2F%3E%3C%2FmxCell%3E%3C%2Froot%3E%3C%2FmxGraphModel%3E&lt;/span&gt;" style="shape=curlyBracket;whiteSpace=wrap;html=1;rounded=1;flipH=1;shadow=0;strokeColor=default;fillColor=none;size=0.5;" parent="1" vertex="1">
          <mxGeometry x="456.75" y="540.01" width="9" height="53" as="geometry" />
        </mxCell>
        <mxCell id="RUT14wLtlC0sVts7Rqis-50" value="&lt;font style=&quot;font-size: 15px&quot;&gt;p2p网络&amp;nbsp;&lt;/font&gt;" style="text;html=1;align=center;verticalAlign=middle;resizable=0;points=[];autosize=1;strokeColor=#d6b656;fillColor=#fff2cc;rounded=1;gradientColor=none;shadow=0;" parent="1" vertex="1">
          <mxGeometry x="489" y="550" width="69" height="19" as="geometry" />
        </mxCell>
        <mxCell id="RUT14wLtlC0sVts7Rqis-58" value="" style="rounded=0;whiteSpace=wrap;html=1;shadow=0;strokeColor=#82b366;fillColor=#97D077;gradientColor=none;" parent="1" vertex="1">
          <mxGeometry x="-63" y="475" width="510" height="43" as="geometry" />
        </mxCell>
        <mxCell id="RUT14wLtlC0sVts7Rqis-59" value="多CA机制" style="rounded=1;whiteSpace=wrap;html=1;shadow=0;strokeColor=default;fillColor=none;" parent="1" vertex="1">
          <mxGeometry x="57.629999999999995" y="485" width="59.75" height="24.25" as="geometry" />
        </mxCell>
        <mxCell id="RUT14wLtlC0sVts7Rqis-60" value="黑白名单" style="rounded=1;whiteSpace=wrap;html=1;shadow=0;strokeColor=default;fillColor=none;" parent="1" vertex="1">
          <mxGeometry x="285" y="488" width="62.25" height="24.25" as="geometry" />
        </mxCell>
        <mxCell id="RUT14wLtlC0sVts7Rqis-67" value="" style="rounded=0;whiteSpace=wrap;html=1;shadow=0;strokeColor=#82b366;fillColor=#97D077;" parent="1" vertex="1">
          <mxGeometry x="-60" y="-30" width="510" height="42" as="geometry" />
        </mxCell>
        <mxCell id="RUT14wLtlC0sVts7Rqis-68" value="&lt;span style=&quot;color: rgba(0 , 0 , 0 , 0) ; font-family: monospace ; font-size: 0px&quot;&gt;%3CmxGraphModel%3E%3Croot%3E%3CmxCell%20id%3D%220%22%2F%3E%3CmxCell%20id%3D%221%22%20parent%3D%220%22%2F%3E%3CmxCell%20id%3D%222%22%20value%3D%22%E5%A4%9A%E6%92%AD%22%20style%3D%22rounded%3D1%3BwhiteSpace%3Dwrap%3Bhtml%3D1%3Bshadow%3D1%3BstrokeColor%3Ddefault%3BfillColor%3Dnone%3B%22%20vertex%3D%221%22%20parent%3D%221%22%3E%3CmxGeometry%20x%3D%22271%22%20y%3D%2255.5%22%20width%3D%2255%22%20height%3D%2225.5%22%20as%3D%22geometry%22%2F%3E%3C%2FmxCell%3E%3C%2Froot%3E%3C%2FmxGraphModel%3E&lt;/span&gt;&lt;span style=&quot;color: rgba(0 , 0 , 0 , 0) ; font-family: monospace ; font-size: 0px&quot;&gt;%3CmxGraphModel%3E%3Croot%3E%3CmxCell%20id%3D%220%22%2F%3E%3CmxCell%20id%3D%221%22%20parent%3D%220%22%2F%3E%3CmxCell%20id%3D%222%22%20value%3D%22%E5%A4%9A%E6%92%AD%22%20style%3D%22rounded%3D1%3BwhiteSpace%3Dwrap%3Bhtml%3D1%3Bshadow%3D1%3BstrokeColor%3Ddefault%3BfillColor%3Dnone%3B%22%20vertex%3D%221%22%20parent%3D%221%22%3E%3CmxGeometry%20x%3D%22271%22%20y%3D%2255.5%22%20width%3D%2255%22%20height%3D%2225.5%22%20as%3D%22geometry%22%2F%3E%3C%2FmxCell%3E%3C%2Froot%3E%3C%2FmxGraphModel%3E&lt;/span&gt;" style="shape=curlyBracket;whiteSpace=wrap;html=1;rounded=1;flipH=1;shadow=0;strokeColor=default;fillColor=none;" parent="1" vertex="1">
          <mxGeometry x="456.75" y="44.75" width="9" height="47" as="geometry" />
        </mxCell>
        <mxCell id="RUT14wLtlC0sVts7Rqis-69" value="&lt;font style=&quot;font-size: 15px&quot;&gt;前置接入层&lt;/font&gt;" style="text;html=1;align=center;verticalAlign=middle;resizable=0;points=[];autosize=1;strokeColor=#d6b656;fillColor=#fff2cc;rounded=1;arcSize=28;gradientColor=none;shadow=0;" parent="1" vertex="1">
          <mxGeometry x="484" y="-24" width="85" height="19" as="geometry" />
        </mxCell>
        <mxCell id="RUT14wLtlC0sVts7Rqis-70" value="" style="rounded=0;whiteSpace=wrap;html=1;shadow=0;strokeColor=#36393d;fillColor=#cce5ff;" parent="1" vertex="1">
          <mxGeometry x="-60" y="-110" width="510" height="38" as="geometry" />
        </mxCell>
        <mxCell id="RUT14wLtlC0sVts7Rqis-71" value="&lt;span style=&quot;color: rgba(0 , 0 , 0 , 0) ; font-family: monospace ; font-size: 0px&quot;&gt;%3CmxGraphModel%3E%3Croot%3E%3CmxCell%20id%3D%220%22%2F%3E%3CmxCell%20id%3D%221%22%20parent%3D%220%22%2F%3E%3CmxCell%20id%3D%222%22%20value%3D%22%E5%A4%9A%E6%92%AD%22%20style%3D%22rounded%3D1%3BwhiteSpace%3Dwrap%3Bhtml%3D1%3Bshadow%3D1%3BstrokeColor%3Ddefault%3BfillColor%3Dnone%3B%22%20vertex%3D%221%22%20parent%3D%221%22%3E%3CmxGeometry%20x%3D%22271%22%20y%3D%2255.5%22%20width%3D%2255%22%20height%3D%2225.5%22%20as%3D%22geometry%22%2F%3E%3C%2FmxCell%3E%3C%2Froot%3E%3C%2FmxGraphModel%3E&lt;/span&gt;&lt;span style=&quot;color: rgba(0 , 0 , 0 , 0) ; font-family: monospace ; font-size: 0px&quot;&gt;%3CmxGraphModel%3E%3Croot%3E%3CmxCell%20id%3D%220%22%2F%3E%3CmxCell%20id%3D%221%22%20parent%3D%220%22%2F%3E%3CmxCell%20id%3D%222%22%20value%3D%22%E5%A4%9A%E6%92%AD%22%20style%3D%22rounded%3D1%3BwhiteSpace%3Dwrap%3Bhtml%3D1%3Bshadow%3D1%3BstrokeColor%3Ddefault%3BfillColor%3Dnone%3B%22%20vertex%3D%221%22%20parent%3D%221%22%3E%3CmxGeometry%20x%3D%22271%22%20y%3D%2255.5%22%20width%3D%2255%22%20height%3D%2225.5%22%20as%3D%22geometry%22%2F%3E%3C%2FmxCell%3E%3C%2Froot%3E%3C%2FmxGraphModel%3E&lt;/span&gt;" style="shape=curlyBracket;whiteSpace=wrap;html=1;rounded=1;flipH=1;shadow=0;strokeColor=default;fillColor=none;" parent="1" vertex="1">
          <mxGeometry x="458" y="-115" width="9" height="41.5" as="geometry" />
        </mxCell>
        <mxCell id="RUT14wLtlC0sVts7Rqis-72" value="&lt;font style=&quot;font-size: 15px&quot;&gt;上层模块&lt;/font&gt;" style="text;html=1;align=center;verticalAlign=middle;resizable=0;points=[];autosize=1;strokeColor=#d6b656;fillColor=#fff2cc;rounded=1;arcSize=28;gradientColor=none;shadow=0;" parent="1" vertex="1">
          <mxGeometry x="486" y="-106.5" width="70" height="19" as="geometry" />
        </mxCell>
        <mxCell id="RUT14wLtlC0sVts7Rqis-73" value="共识" style="rounded=1;whiteSpace=wrap;html=1;shadow=0;strokeColor=default;fillColor=none;" parent="1" vertex="1">
          <mxGeometry x="-26.5" y="-103.75" width="56.5" height="23.75" as="geometry" />
        </mxCell>
        <mxCell id="RUT14wLtlC0sVts7Rqis-74" value="执行" style="rounded=1;whiteSpace=wrap;html=1;shadow=0;strokeColor=default;fillColor=none;" parent="1" vertex="1">
          <mxGeometry x="77" y="-103.75" width="53" height="23.75" as="geometry" />
        </mxCell>
        <mxCell id="RUT14wLtlC0sVts7Rqis-75" value="区块/交易&lt;br&gt;同步" style="rounded=1;whiteSpace=wrap;html=1;shadow=0;strokeColor=default;fillColor=none;" parent="1" vertex="1">
          <mxGeometry x="162.5" y="-102" width="87.5" height="22" as="geometry" />
        </mxCell>
        <mxCell id="RUT14wLtlC0sVts7Rqis-76" value="其他..." style="rounded=1;whiteSpace=wrap;html=1;shadow=0;strokeColor=default;fillColor=none;" parent="1" vertex="1">
          <mxGeometry x="304" y="-103.25" width="76" height="23.25" as="geometry" />
        </mxCell>
        <mxCell id="RUT14wLtlC0sVts7Rqis-77" value="" style="shape=curlyBracket;whiteSpace=wrap;html=1;rounded=1;flipH=1;shadow=0;fontSize=15;strokeColor=#000000;fillColor=#FFFFCC;gradientColor=none;gradientDirection=north;" parent="1" vertex="1">
          <mxGeometry x="579" y="45" width="41" height="547" as="geometry" />
        </mxCell>
        <mxCell id="RUT14wLtlC0sVts7Rqis-79" value="" style="rounded=0;whiteSpace=wrap;html=1;shadow=0;strokeColor=#36393d;fillColor=#cce5ff;" parent="1" vertex="1">
          <mxGeometry x="-63" y="381" width="511" height="65" as="geometry" />
        </mxCell>
        <mxCell id="RUT14wLtlC0sVts7Rqis-80" value="P2P ID" style="rounded=1;whiteSpace=wrap;html=1;shadow=0;strokeColor=default;fillColor=none;" parent="1" vertex="1">
          <mxGeometry x="116.75999999999999" y="322" width="55" height="25.5" as="geometry" />
        </mxCell>
        <mxCell id="RUT14wLtlC0sVts7Rqis-81" value="&lt;span style=&quot;color: rgba(0 , 0 , 0 , 0) ; font-family: monospace ; font-size: 0px&quot;&gt;%3CmxGraphModel%3E%3Croot%3E%3CmxCell%20id%3D%220%22%2F%3E%3CmxCell%20id%3D%221%22%20parent%3D%220%22%2F%3E%3CmxCell%20id%3D%222%22%20value%3D%22%E5%A4%9A%E6%92%AD%22%20style%3D%22rounded%3D1%3BwhiteSpace%3Dwrap%3Bhtml%3D1%3Bshadow%3D1%3BstrokeColor%3Ddefault%3BfillColor%3Dnone%3B%22%20vertex%3D%221%22%20parent%3D%221%22%3E%3CmxGeometry%20x%3D%22271%22%20y%3D%2255.5%22%20width%3D%2255%22%20height%3D%2225.5%22%20as%3D%22geometry%22%2F%3E%3C%2FmxCell%3E%3C%2Froot%3E%3C%2FmxGraphModel%3E&lt;/span&gt;&lt;span style=&quot;color: rgba(0 , 0 , 0 , 0) ; font-family: monospace ; font-size: 0px&quot;&gt;%3CmxGraphModel%3E%3Croot%3E%3CmxCell%20id%3D%220%22%2F%3E%3CmxCell%20id%3D%221%22%20parent%3D%220%22%2F%3E%3CmxCell%20id%3D%222%22%20value%3D%22%E5%A4%9A%E6%92%AD%22%20style%3D%22rounded%3D1%3BwhiteSpace%3Dwrap%3Bhtml%3D1%3Bshadow%3D1%3BstrokeColor%3Ddefault%3BfillColor%3Dnone%3B%22%20vertex%3D%221%22%20parent%3D%221%22%3E%3CmxGeometry%20x%3D%22271%22%20y%3D%2255.5%22%20width%3D%2255%22%20height%3D%2225.5%22%20as%3D%22geometry%22%2F%3E%3C%2FmxCell%3E%3C%2Froot%3E%3C%2FmxGraphModel%3E&lt;/span&gt;" style="shape=curlyBracket;whiteSpace=wrap;html=1;rounded=1;flipH=1;shadow=0;strokeColor=default;fillColor=none;" parent="1" vertex="1">
          <mxGeometry x="459" y="384" width="9" height="61" as="geometry" />
        </mxCell>
        <mxCell id="RUT14wLtlC0sVts7Rqis-82" value="&lt;span style=&quot;font-size: 15px&quot;&gt;TLV协议&lt;/span&gt;" style="text;html=1;align=center;verticalAlign=middle;resizable=0;points=[];autosize=1;strokeColor=#d6b656;fillColor=#fff2cc;rounded=1;gradientColor=none;shadow=0;" parent="1" vertex="1">
          <mxGeometry x="490" y="401" width="66" height="19" as="geometry" />
        </mxCell>
        <mxCell id="RUT14wLtlC0sVts7Rqis-83" value="&lt;div&gt;&lt;span style=&quot;font-size: 14px&quot;&gt;&lt;i&gt;length&lt;/i&gt;&lt;/span&gt;&lt;/div&gt;" style="rounded=1;whiteSpace=wrap;html=1;shadow=0;fontSize=25;strokeColor=#36393d;fillColor=#eeeeee;gradientDirection=north;align=center;sketch=1;" parent="1" vertex="1">
          <mxGeometry x="19" y="405" width="68" height="27" as="geometry" />
        </mxCell>
        <mxCell id="RUT14wLtlC0sVts7Rqis-87" value="&lt;span style=&quot;font-size: 14px&quot;&gt;&lt;i&gt;payload&lt;/i&gt;&lt;/span&gt;" style="rounded=1;whiteSpace=wrap;html=1;shadow=0;fontSize=25;strokeColor=#36393d;fillColor=#eeeeee;gradientDirection=north;align=center;sketch=1;" parent="1" vertex="1">
          <mxGeometry x="291" y="405" width="65" height="27" as="geometry" />
        </mxCell>
        <mxCell id="RUT14wLtlC0sVts7Rqis-88" value="群组ID" style="rounded=1;whiteSpace=wrap;html=1;shadow=0;strokeColor=default;fillColor=none;" parent="1" vertex="1">
          <mxGeometry x="161.5" y="-21.75" width="55" height="25.5" as="geometry" />
        </mxCell>
        <mxCell id="RUT14wLtlC0sVts7Rqis-89" value="网关" style="rounded=1;whiteSpace=wrap;html=1;shadow=0;glass=0;sketch=0;fontSize=14;gradientDirection=north;strokeWidth=2;" parent="1" vertex="1">
          <mxGeometry x="627" y="296.5" width="85" height="44" as="geometry" />
        </mxCell>
        <mxCell id="RUT14wLtlC0sVts7Rqis-90" value="" style="endArrow=none;html=1;rounded=0;fontSize=14;dashed=1;strokeWidth=3;fillColor=#ffff88;strokeColor=#000000;shadow=0;" parent="1" edge="1">
          <mxGeometry width="50" height="50" relative="1" as="geometry">
            <mxPoint x="-140" y="27" as="sourcePoint" />
            <mxPoint x="640.5" y="22" as="targetPoint" />
          </mxGeometry>
        </mxCell>
        <mxCell id="RUT14wLtlC0sVts7Rqis-91" value="" style="rounded=0;whiteSpace=wrap;html=1;shadow=0;strokeColor=#36393d;fillColor=#cce5ff;" parent="1" vertex="1">
          <mxGeometry x="-63" y="543" width="509.12" height="50.01" as="geometry" />
        </mxCell>
        <mxCell id="RUT14wLtlC0sVts7Rqis-92" value="状态获取" style="rounded=1;whiteSpace=wrap;html=1;shadow=0;strokeColor=default;fillColor=none;" parent="1" vertex="1">
          <mxGeometry x="330" y="56.5" width="55" height="25.5" as="geometry" />
        </mxCell>
        <mxCell id="RUT14wLtlC0sVts7Rqis-94" value="连接管理" style="rounded=1;whiteSpace=wrap;html=1;shadow=0;strokeColor=default;fillColor=none;" parent="1" vertex="1">
          <mxGeometry x="41" y="558" width="55" height="25.5" as="geometry" />
        </mxCell>
        <mxCell id="RUT14wLtlC0sVts7Rqis-95" value="消息注册" style="rounded=1;whiteSpace=wrap;html=1;shadow=0;strokeColor=default;fillColor=none;" parent="1" vertex="1">
          <mxGeometry x="132" y="558" width="55" height="25.5" as="geometry" />
        </mxCell>
        <mxCell id="RUT14wLtlC0sVts7Rqis-96" value="回调注册" style="rounded=1;whiteSpace=wrap;html=1;shadow=0;strokeColor=default;fillColor=none;" parent="1" vertex="1">
          <mxGeometry x="219.25" y="557" width="55" height="25.5" as="geometry" />
        </mxCell>
        <mxCell id="RUT14wLtlC0sVts7Rqis-97" value="心跳" style="rounded=1;whiteSpace=wrap;html=1;shadow=0;strokeColor=default;fillColor=none;" parent="1" vertex="1">
          <mxGeometry x="-29" y="556.5" width="38.5" height="26" as="geometry" />
        </mxCell>
        <mxCell id="RUT14wLtlC0sVts7Rqis-98" value="消息&lt;br&gt;发送、接收" style="rounded=1;whiteSpace=wrap;html=1;shadow=0;strokeColor=default;fillColor=none;" parent="1" vertex="1">
          <mxGeometry x="297" y="558" width="66.5" height="23" as="geometry" />
        </mxCell>
        <mxCell id="RUT14wLtlC0sVts7Rqis-99" value="..." style="rounded=1;whiteSpace=wrap;html=1;shadow=0;strokeColor=default;fillColor=none;" parent="1" vertex="1">
          <mxGeometry x="388" y="558" width="45" height="23" as="geometry" />
        </mxCell>
        <mxCell id="RUT14wLtlC0sVts7Rqis-101" style="edgeStyle=orthogonalEdgeStyle;rounded=0;orthogonalLoop=1;jettySize=auto;html=1;exitX=0.5;exitY=1;exitDx=0;exitDy=0;dashed=1;fontSize=14;strokeColor=#000000;strokeWidth=3;shadow=0;" parent="1" source="RUT14wLtlC0sVts7Rqis-94" target="RUT14wLtlC0sVts7Rqis-94" edge="1">
          <mxGeometry relative="1" as="geometry" />
        </mxCell>
        <mxCell id="RUT14wLtlC0sVts7Rqis-102" value="&lt;span style=&quot;font-size: 14px&quot;&gt;&lt;i&gt;type&lt;/i&gt;&lt;/span&gt;" style="rounded=1;whiteSpace=wrap;html=1;shadow=0;fontSize=25;strokeColor=#36393d;fillColor=#eeeeee;gradientDirection=north;align=center;sketch=1;" parent="1" vertex="1">
          <mxGeometry x="87" y="405" width="68" height="27" as="geometry" />
        </mxCell>
        <mxCell id="RUT14wLtlC0sVts7Rqis-103" value="&lt;span style=&quot;font-size: 14px&quot;&gt;&lt;i&gt;version&lt;/i&gt;&lt;/span&gt;" style="rounded=1;whiteSpace=wrap;html=1;shadow=0;fontSize=25;strokeColor=#36393d;fillColor=#eeeeee;gradientDirection=north;align=center;sketch=1;" parent="1" vertex="1">
          <mxGeometry x="155" y="405" width="68" height="27" as="geometry" />
        </mxCell>
        <mxCell id="RUT14wLtlC0sVts7Rqis-104" value="&lt;span style=&quot;font-size: 14px&quot;&gt;&lt;i&gt;...&lt;/i&gt;&lt;/span&gt;" style="rounded=1;whiteSpace=wrap;html=1;shadow=0;fontSize=25;strokeColor=#36393d;fillColor=#eeeeee;gradientDirection=north;align=center;sketch=1;" parent="1" vertex="1">
          <mxGeometry x="223" y="405" width="68" height="27" as="geometry" />
        </mxCell>
        <mxCell id="uOxkzZMQ7-q3YnTm9C6e-2" value="网关" style="text;html=1;align=center;verticalAlign=middle;resizable=0;points=[];autosize=1;strokeColor=none;fillColor=none;" vertex="1" parent="1">
          <mxGeometry x="723" y="534" width="42" height="26" as="geometry" />
        </mxCell>
      </root>
    </mxGraphModel>
  </diagram>
</mxfile>
